<?xml version="1.0" encoding="us-ascii" standalone="no"?><svg xmlns="http://www.w3.org/2000/svg" xmlns:xlink="http://www.w3.org/1999/xlink" contentStyleType="text/css" height="774px" preserveAspectRatio="none" style="width:535px;height:774px;background:#FFFFFF;" version="1.1" viewBox="0 0 535 774" width="535px" zoomAndPan="magnify"><defs/><g><!--class Thing--><a href="" target="_top" title="None" xlink:actuate="onRequest" xlink:href="" xlink:show="new" xlink:title="None" xlink:type="simple"><g id="elem_Thing"><rect codeLine="1" fill="#F1F1F1" height="64.2969" id="Thing" rx="2.5" ry="2.5" style="stroke:#181818;stroke-width:0.5;" width="102" x="128" y="7"/><ellipse cx="156.95" cy="23" fill="#ADD1B2" rx="11" ry="11" style="stroke:#181818;stroke-width:1.0;"/><path d="M159.9188,28.6406 Q159.3406,28.9375 158.7,29.0781 Q158.0594,29.2344 157.3563,29.2344 Q154.8563,29.2344 153.5281,27.5938 Q152.2156,25.9375 152.2156,22.8125 Q152.2156,19.6875 153.5281,18.0313 Q154.8563,16.375 157.3563,16.375 Q158.0594,16.375 158.7,16.5313 Q159.3563,16.6875 159.9188,16.9844 L159.9188,19.7031 Q159.2938,19.125 158.7,18.8594 Q158.1063,18.5781 157.4813,18.5781 Q156.1375,18.5781 155.45,19.6563 Q154.7625,20.7188 154.7625,22.8125 Q154.7625,24.9063 155.45,25.9844 Q156.1375,27.0469 157.4813,27.0469 Q158.1063,27.0469 158.7,26.7813 Q159.2938,26.5 159.9188,25.9219 L159.9188,28.6406 Z " fill="#000000"/><text fill="#000000" font-family="sans-serif" font-size="14" lengthAdjust="spacing" textLength="39" x="174.05" y="27.8467">Thing</text><line style="stroke:#181818;stroke-width:0.5;" x1="129" x2="229" y1="39" y2="39"/><text fill="#000000" font-family="sans-serif" font-size="14" lengthAdjust="spacing" textLength="90" x="134" y="55.9951">id : uriorcurie</text><line style="stroke:#181818;stroke-width:0.5;" x1="129" x2="229" y1="63.2969" y2="63.2969"/></g></a><!--class Method--><a href="" target="_top" title="A method used to generate a descriptor" xlink:actuate="onRequest" xlink:href="" xlink:show="new" xlink:title="A method used to generate a descriptor" xlink:type="simple"><g id="elem_Method"><rect codeLine="4" fill="#F1F1F1" height="113.1875" id="Method" rx="2.5" ry="2.5" style="stroke:#181818;stroke-width:0.5;" width="260" x="7" y="653.97"/><ellipse cx="106.25" cy="669.97" fill="#ADD1B2" rx="11" ry="11" style="stroke:#181818;stroke-width:1.0;"/><path d="M109.2188,675.6106 Q108.6406,675.9075 108,676.0481 Q107.3594,676.2044 106.6563,676.2044 Q104.1563,676.2044 102.8281,674.5637 Q101.5156,672.9075 101.5156,669.7825 Q101.5156,666.6575 102.8281,665.0012 Q104.1563,663.345 106.6563,663.345 Q107.3594,663.345 108,663.5012 Q108.6563,663.6575 109.2188,663.9544 L109.2188,666.6731 Q108.5938,666.095 108,665.8294 Q107.4063,665.5481 106.7813,665.5481 Q105.4375,665.5481 104.75,666.6262 Q104.0625,667.6887 104.0625,669.7825 Q104.0625,671.8762 104.75,672.9544 Q105.4375,674.0169 106.7813,674.0169 Q107.4063,674.0169 108,673.7512 Q108.5938,673.47 109.2188,672.8919 L109.2188,675.6106 Z " fill="#000000"/><text fill="#000000" font-family="sans-serif" font-size="14" lengthAdjust="spacing" textLength="53" x="126.75" y="674.8167">Method</text><line style="stroke:#181818;stroke-width:0.5;" x1="8" x2="266" y1="685.97" y2="685.97"/><text fill="#000000" font-family="sans-serif" font-size="14" lengthAdjust="spacing" textLength="84" x="13" y="702.9651">label : string</text><text fill="#000000" font-family="sans-serif" font-size="14" lengthAdjust="spacing" textLength="118" x="13" y="719.262">comment : string</text><text fill="#000000" font-family="sans-serif" font-size="14" lengthAdjust="spacing" textLength="248" x="13" y="735.5589">robustness : descriptor_robustness</text><text fill="#000000" font-family="sans-serif" font-size="14" lengthAdjust="spacing" textLength="103" x="13" y="751.8557">id(i) : uriorcurie</text><line style="stroke:#181818;stroke-width:0.5;" x1="8" x2="266" y1="759.1575" y2="759.1575"/></g></a><!--class DescriptorType--><a href="" target="_top" title="The type of a descriptor, including its quality and coverage" xlink:actuate="onRequest" xlink:href="" xlink:show="new" xlink:title="The type of a descriptor, including its quality and coverage" xlink:type="simple"><g id="elem_DescriptorType"><rect codeLine="10" fill="#F1F1F1" height="96.8906" id="DescriptorType" rx="2.5" ry="2.5" style="stroke:#181818;stroke-width:0.5;" width="146" x="161" y="480.08"/><ellipse cx="179.6" cy="496.08" fill="#ADD1B2" rx="11" ry="11" style="stroke:#181818;stroke-width:1.0;"/><path d="M182.5688,501.7206 Q181.9906,502.0175 181.35,502.1581 Q180.7094,502.3144 180.0063,502.3144 Q177.5063,502.3144 176.1781,500.6738 Q174.8656,499.0175 174.8656,495.8925 Q174.8656,492.7675 176.1781,491.1113 Q177.5063,489.455 180.0063,489.455 Q180.7094,489.455 181.35,489.6113 Q182.0063,489.7675 182.5688,490.0644 L182.5688,492.7831 Q181.9438,492.205 181.35,491.9394 Q180.7563,491.6581 180.1313,491.6581 Q178.7875,491.6581 178.1,492.7363 Q177.4125,493.7988 177.4125,495.8925 Q177.4125,497.9863 178.1,499.0644 Q178.7875,500.1269 180.1313,500.1269 Q180.7563,500.1269 181.35,499.8613 Q181.9438,499.58 182.5688,499.0019 L182.5688,501.7206 Z " fill="#000000"/><text fill="#000000" font-family="sans-serif" font-size="14" lengthAdjust="spacing" textLength="106" x="194.4" y="500.9267">DescriptorType</text><line style="stroke:#181818;stroke-width:0.5;" x1="162" x2="306" y1="512.08" y2="512.08"/><text fill="#000000" font-family="sans-serif" font-size="14" lengthAdjust="spacing" textLength="84" x="167" y="529.0751">label : string</text><text fill="#000000" font-family="sans-serif" font-size="14" lengthAdjust="spacing" textLength="134" x="167" y="545.372">block_size : integer</text><text fill="#000000" font-family="sans-serif" font-size="14" lengthAdjust="spacing" textLength="103" x="167" y="561.6689">id(i) : uriorcurie</text><line style="stroke:#181818;stroke-width:0.5;" x1="162" x2="306" y1="568.9706" y2="568.9706"/></g></a><!--class DescribableThing--><a href="" target="_top" title="An item that can be described" xlink:actuate="onRequest" xlink:href="" xlink:show="new" xlink:title="An item that can be described" xlink:type="simple"><g id="elem_DescribableThing"><rect codeLine="15" fill="#F1F1F1" height="64.2969" id="DescribableThing" rx="2.5" ry="2.5" style="stroke:#181818;stroke-width:0.5;" width="153" x="280.5" y="132.3"/><ellipse cx="295.5" cy="148.3" fill="#ADD1B2" rx="11" ry="11" style="stroke:#181818;stroke-width:1.0;"/><path d="M298.4688,153.9406 Q297.8906,154.2375 297.25,154.3781 Q296.6094,154.5344 295.9063,154.5344 Q293.4063,154.5344 292.0781,152.8937 Q290.7656,151.2375 290.7656,148.1125 Q290.7656,144.9875 292.0781,143.3312 Q293.4063,141.675 295.9063,141.675 Q296.6094,141.675 297.25,141.8312 Q297.9063,141.9875 298.4688,142.2844 L298.4688,145.0031 Q297.8438,144.425 297.25,144.1594 Q296.6563,143.8781 296.0313,143.8781 Q294.6875,143.8781 294,144.9562 Q293.3125,146.0187 293.3125,148.1125 Q293.3125,150.2062 294,151.2844 Q294.6875,152.3469 296.0313,152.3469 Q296.6563,152.3469 297.25,152.0812 Q297.8438,151.8 298.4688,151.2219 L298.4688,153.9406 Z " fill="#000000"/><text fill="#000000" font-family="sans-serif" font-size="14" lengthAdjust="spacing" textLength="121" x="309.5" y="153.1467">DescribableThing</text><line style="stroke:#181818;stroke-width:0.5;" x1="281.5" x2="432.5" y1="164.3" y2="164.3"/><text fill="#000000" font-family="sans-serif" font-size="14" lengthAdjust="spacing" textLength="103" x="286.5" y="181.2951">id(i) : uriorcurie</text><line style="stroke:#181818;stroke-width:0.5;" x1="281.5" x2="432.5" y1="188.5969" y2="188.5969"/></g></a><!--class Descriptor--><a href="" target="_top" title="A descriptor for an aspect of an item or another descriptor" xlink:actuate="onRequest" xlink:href="" xlink:show="new" xlink:title="A descriptor for an aspect of an item or another descriptor" xlink:type="simple"><g id="elem_Descriptor"><rect codeLine="22" fill="#F1F1F1" height="129.4844" id="Descriptor" rx="2.5" ry="2.5" style="stroke:#181818;stroke-width:0.5;" width="118" x="232" y="273.6"/><ellipse cx="253.3" cy="289.6" fill="#ADD1B2" rx="11" ry="11" style="stroke:#181818;stroke-width:1.0;"/><path d="M256.2688,295.2406 Q255.6906,295.5375 255.05,295.6781 Q254.4094,295.8344 253.7063,295.8344 Q251.2063,295.8344 249.8781,294.1937 Q248.5656,292.5375 248.5656,289.4125 Q248.5656,286.2875 249.8781,284.6312 Q251.2063,282.975 253.7063,282.975 Q254.4094,282.975 255.05,283.1312 Q255.7063,283.2875 256.2688,283.5844 L256.2688,286.3031 Q255.6438,285.725 255.05,285.4594 Q254.4563,285.1781 253.8313,285.1781 Q252.4875,285.1781 251.8,286.2562 Q251.1125,287.3187 251.1125,289.4125 Q251.1125,291.5062 251.8,292.5844 Q252.4875,293.6469 253.8313,293.6469 Q254.4563,293.6469 255.05,293.3812 Q255.6438,293.1 256.2688,292.5219 L256.2688,295.2406 Z " fill="#000000"/><text fill="#000000" font-family="sans-serif" font-size="14" lengthAdjust="spacing" textLength="72" x="268.7" y="294.4467">Descriptor</text><line style="stroke:#181818;stroke-width:0.5;" x1="233" x2="349" y1="305.6" y2="305.6"/><text fill="#000000" font-family="sans-serif" font-size="14" lengthAdjust="spacing" textLength="88" x="238" y="322.5951">value : string</text><text fill="#000000" font-family="sans-serif" font-size="14" lengthAdjust="spacing" textLength="101" x="238" y="338.892">offset : integer</text><text fill="#000000" font-family="sans-serif" font-size="14" lengthAdjust="spacing" textLength="106" x="238" y="355.1889">length : integer</text><text fill="#000000" font-family="sans-serif" font-size="14" lengthAdjust="spacing" textLength="106" x="238" y="371.4857">coverage : float</text><text fill="#000000" font-family="sans-serif" font-size="14" lengthAdjust="spacing" textLength="103" x="238" y="387.7826">id(i) : uriorcurie</text><line style="stroke:#181818;stroke-width:0.5;" x1="233" x2="349" y1="395.0844" y2="395.0844"/></g></a><!--class Item--><a href="" target="_top" title="An individual item (e.g., file) in the dataset" xlink:actuate="onRequest" xlink:href="" xlink:show="new" xlink:title="An individual item (e.g., file) in the dataset" xlink:type="simple"><g id="elem_Item"><rect codeLine="32" fill="#F1F1F1" height="96.8906" id="Item" rx="2.5" ry="2.5" style="stroke:#181818;stroke-width:0.5;" width="143" x="385.5" y="289.89"/><ellipse cx="437.75" cy="305.89" fill="#ADD1B2" rx="11" ry="11" style="stroke:#181818;stroke-width:1.0;"/><path d="M440.7188,311.5306 Q440.1406,311.8275 439.5,311.9681 Q438.8594,312.1244 438.1563,312.1244 Q435.6563,312.1244 434.3281,310.4838 Q433.0156,308.8275 433.0156,305.7025 Q433.0156,302.5775 434.3281,300.9213 Q435.6563,299.265 438.1563,299.265 Q438.8594,299.265 439.5,299.4213 Q440.1563,299.5775 440.7188,299.8744 L440.7188,302.5931 Q440.0938,302.015 439.5,301.7494 Q438.9063,301.4681 438.2813,301.4681 Q436.9375,301.4681 436.25,302.5463 Q435.5625,303.6088 435.5625,305.7025 Q435.5625,307.7963 436.25,308.8744 Q436.9375,309.9369 438.2813,309.9369 Q438.9063,309.9369 439.5,309.6713 Q440.0938,309.39 440.7188,308.8119 L440.7188,311.5306 Z " fill="#000000"/><text fill="#000000" font-family="sans-serif" font-size="14" lengthAdjust="spacing" textLength="30" x="458.25" y="310.7367">Item</text><line style="stroke:#181818;stroke-width:0.5;" x1="386.5" x2="527.5" y1="321.89" y2="321.89"/><text fill="#000000" font-family="sans-serif" font-size="14" lengthAdjust="spacing" textLength="84" x="391.5" y="338.8851">label : string</text><text fill="#000000" font-family="sans-serif" font-size="14" lengthAdjust="spacing" textLength="131" x="391.5" y="355.182">isPartOf : uriorcurie</text><text fill="#000000" font-family="sans-serif" font-size="14" lengthAdjust="spacing" textLength="103" x="391.5" y="371.4789">id(i) : uriorcurie</text><line style="stroke:#181818;stroke-width:0.5;" x1="386.5" x2="527.5" y1="378.7806" y2="378.7806"/></g></a><!--reverse link Thing to Method--><g id="link_Thing_Method"><path codeLine="18" d="M137.4163,85.2292 C118.0663,108.6192 108,128.62 108,163.45 C108,163.45 108,163.45 108,529.53 C108,571.48 115.77,618.23 123.26,653.58 " fill="none" id="Thing-backto-Method" style="stroke:#181818;stroke-width:1.0;"/><polygon fill="none" points="148.89,71.36,132.7933,81.4046,142.0394,89.0538,148.89,71.36" style="stroke:#181818;stroke-width:1.0;"/></g><!--reverse link Thing to DescriptorType--><g id="link_Thing_DescriptorType"><path codeLine="19" d="M182.7601,89.7262 C187.6501,152.8562 198.31,280.96 214,403.08 C217.26,428.48 221.72,456.65 225.6,479.76 " fill="none" id="Thing-backto-DescriptorType" style="stroke:#181818;stroke-width:1.0;"/><polygon fill="none" points="181.37,71.78,176.778,90.1896,188.7422,89.2629,181.37,71.78" style="stroke:#181818;stroke-width:1.0;"/></g><!--reverse link Thing to DescribableThing--><g id="link_Thing_DescribableThing"><path codeLine="20" d="M239.1753,81.8318 C265.8453,100.3118 284.68,113.35 311.4,131.86 " fill="none" id="Thing-backto-DescribableThing" style="stroke:#181818;stroke-width:1.0;"/><polygon fill="none" points="224.38,71.58,235.758,86.7636,242.5925,76.9001,224.38,71.58" style="stroke:#181818;stroke-width:1.0;"/></g><!--link DescriptorType to Method--><g id="link_DescriptorType_Method"><path codeLine="21" d="M208.26,577.3 C195.63,600.74 183.1845,623.8371 170.0145,648.2971 " fill="none" id="DescriptorType-to-Method" style="stroke:#181818;stroke-width:1.0;"/><polygon fill="#181818" points="167.17,653.58,174.9586,647.552,169.5404,649.1776,167.9148,643.7593,167.17,653.58" style="stroke:#181818;stroke-width:1.0;"/><text fill="#000000" font-family="sans-serif" font-size="13" lengthAdjust="spacing" textLength="78" x="193" y="620.0369">usesMethod</text><text fill="#000000" font-family="sans-serif" font-size="13" lengthAdjust="spacing" textLength="8" x="162.3595" y="642.796">1</text></g><!--link Descriptor to DescriptorType--><g id="link_Descriptor_DescriptorType"><path codeLine="29" d="M271.54,403.58 C264,428.49 257.25,450.7779 250.25,473.8779 " fill="none" id="Descriptor-to-DescriptorType" style="stroke:#181818;stroke-width:1.0;"/><polygon fill="#181818" points="248.51,479.62,254.9482,472.1668,249.96,474.8349,247.292,469.8468,248.51,479.62" style="stroke:#181818;stroke-width:1.0;"/><text fill="#000000" font-family="sans-serif" font-size="13" lengthAdjust="spacing" textLength="53" x="264" y="446.1469">hasType</text><text fill="#000000" font-family="sans-serif" font-size="13" lengthAdjust="spacing" textLength="8" x="241.9223" y="469.1164">1</text></g><!--link DescribableThing to Descriptor--><g id="link_DescribableThing_Descriptor"><path codeLine="30" d="M290.76,196.88 C280,205.01 270.33,214.86 264,226.6 C256.3,240.88 254.9828,251.5264 258.5428,267.3464 " fill="none" id="DescribableThing-to-Descriptor" style="stroke:#181818;stroke-width:1.0;"/><polygon fill="#181818" points="259.86,273.2,261.7865,263.5414,258.7623,268.322,253.9817,265.2977,259.86,273.2" style="stroke:#181818;stroke-width:1.0;"/><text fill="#000000" font-family="sans-serif" font-size="13" lengthAdjust="spacing" textLength="89" x="265" y="239.6669">hasDescriptor</text><text fill="#000000" font-family="sans-serif" font-size="13" lengthAdjust="spacing" textLength="23" x="232.1963" y="262.3289">0..*</text></g><!--reverse link DescribableThing to Descriptor--><g id="link_DescribableThing_Descriptor"><path codeLine="31" d="M364.2175,214.8617 C365.5775,229.3917 363.82,228.75 359,243.6 C355.71,253.73 350.87,263.69 345.26,273.11 " fill="none" id="DescribableThing-backto-Descriptor" style="stroke:#181818;stroke-width:1.0;"/><polygon fill="none" points="362.54,196.94,358.2436,215.4208,370.1913,214.3025,362.54,196.94" style="stroke:#181818;stroke-width:1.0;"/></g><!--reverse link DescribableThing to Item--><g id="link_DescribableThing_Item"><path codeLine="37" d="M384.3958,212.5361 C399.4558,238.4061 411.96,259.91 429.14,289.45 " fill="none" id="DescribableThing-backto-Item" style="stroke:#181818;stroke-width:1.0;"/><polygon fill="none" points="375.34,196.98,379.2105,215.5547,389.5812,209.5175,375.34,196.98" style="stroke:#181818;stroke-width:1.0;"/></g><!--SRC=[dLCxRy8m4Dxv5QTCK05gLuPAI5qwz36m8OeS-v9ODJQrBqWKyTzx3H127XKqKYBPb_DzBqiZGe1ebccRHZ2VxrwTnVrY0RiUyBDBD1gr1wrW0hdNpal-8a1ltvE7rXUapAcYTmghOW5vG0Na84MBNX2208L1Uhqcvvkd6n6ZuG61FCFWmwj5wLOhjDHLzYxE0rbaA9FAa6Lb7sfK-dhGoUQfF66sNMF1QfOX42_09HSyXg2jDBdwnQGfm5SkZAOj2AiOz8Q9ftWZrzWu-RaC-Xlv3sq9K_J_W1-BsE3PqgbbVBW2oWI151PYFDA8KRLvtJhXb96FqQWq_NApfbrRiOAirz1wD7g4w24wHse24ISfd8OrB3g6xcm99FmoGH7MAAamxCYzs7UKiPv_9N4ZJ8vTxhWa2KYTpXYqAMMTvLCa-8V4E7RYAbyls9O2rPLZeJ8HZgetCr3qtO_7Tz6bUeUsoavRSytQqePdbhMCbrLwenLVW8FQVHoduo4ask20YvmyJfmWmVBTU2DqU1UUtfAwCjTBr-1I0Fy1]--></g></svg>