<?xml version="1.0" encoding="us-ascii" standalone="no"?><svg xmlns="http://www.w3.org/2000/svg" xmlns:xlink="http://www.w3.org/1999/xlink" contentStyleType="text/css" height="790px" preserveAspectRatio="none" style="width:535px;height:790px;background:#FFFFFF;" version="1.1" viewBox="0 0 535 790" width="535px" zoomAndPan="magnify"><defs/><g><!--class Thing--><a href="" target="_top" title="None" xlink:actuate="onRequest" xlink:href="" xlink:show="new" xlink:title="None" xlink:type="simple"><g id="elem_Thing"><rect codeLine="1" fill="#F1F1F1" height="64.2969" id="Thing" rx="2.5" ry="2.5" style="stroke:#181818;stroke-width:0.5;" width="102" x="128" y="7"/><ellipse cx="156.95" cy="23" fill="#ADD1B2" rx="11" ry="11" style="stroke:#181818;stroke-width:1.0;"/><path d="M159.9188,28.6406 Q159.3406,28.9375 158.7,29.0781 Q158.0594,29.2344 157.3563,29.2344 Q154.8563,29.2344 153.5281,27.5938 Q152.2156,25.9375 152.2156,22.8125 Q152.2156,19.6875 153.5281,18.0313 Q154.8563,16.375 157.3563,16.375 Q158.0594,16.375 158.7,16.5313 Q159.3563,16.6875 159.9188,16.9844 L159.9188,19.7031 Q159.2938,19.125 158.7,18.8594 Q158.1063,18.5781 157.4813,18.5781 Q156.1375,18.5781 155.45,19.6563 Q154.7625,20.7188 154.7625,22.8125 Q154.7625,24.9063 155.45,25.9844 Q156.1375,27.0469 157.4813,27.0469 Q158.1063,27.0469 158.7,26.7813 Q159.2938,26.5 159.9188,25.9219 L159.9188,28.6406 Z " fill="#000000"/><text fill="#000000" font-family="sans-serif" font-size="14" lengthAdjust="spacing" textLength="39" x="174.05" y="27.8467">Thing</text><line style="stroke:#181818;stroke-width:0.5;" x1="129" x2="229" y1="39" y2="39"/><text fill="#000000" font-family="sans-serif" font-size="14" lengthAdjust="spacing" textLength="90" x="134" y="55.9951">id : uriorcurie</text><line style="stroke:#181818;stroke-width:0.5;" x1="129" x2="229" y1="63.2969" y2="63.2969"/></g></a><!--class Method--><a href="" target="_top" title="A method used to generate a descriptor" xlink:actuate="onRequest" xlink:href="" xlink:show="new" xlink:title="A method used to generate a descriptor" xlink:type="simple"><g id="elem_Method"><rect codeLine="4" fill="#F1F1F1" height="113.1875" id="Method" rx="2.5" ry="2.5" style="stroke:#181818;stroke-width:0.5;" width="260" x="7" y="670.26"/><ellipse cx="106.25" cy="686.26" fill="#ADD1B2" rx="11" ry="11" style="stroke:#181818;stroke-width:1.0;"/><path d="M109.2188,691.9006 Q108.6406,692.1975 108,692.3381 Q107.3594,692.4944 106.6563,692.4944 Q104.1563,692.4944 102.8281,690.8538 Q101.5156,689.1975 101.5156,686.0725 Q101.5156,682.9475 102.8281,681.2913 Q104.1563,679.635 106.6563,679.635 Q107.3594,679.635 108,679.7913 Q108.6563,679.9475 109.2188,680.2444 L109.2188,682.9631 Q108.5938,682.385 108,682.1194 Q107.4063,681.8381 106.7813,681.8381 Q105.4375,681.8381 104.75,682.9163 Q104.0625,683.9788 104.0625,686.0725 Q104.0625,688.1663 104.75,689.2444 Q105.4375,690.3069 106.7813,690.3069 Q107.4063,690.3069 108,690.0413 Q108.5938,689.76 109.2188,689.1819 L109.2188,691.9006 Z " fill="#000000"/><text fill="#000000" font-family="sans-serif" font-size="14" lengthAdjust="spacing" textLength="53" x="126.75" y="691.1067">Method</text><line style="stroke:#181818;stroke-width:0.5;" x1="8" x2="266" y1="702.26" y2="702.26"/><text fill="#000000" font-family="sans-serif" font-size="14" lengthAdjust="spacing" textLength="84" x="13" y="719.2551">label : string</text><text fill="#000000" font-family="sans-serif" font-size="14" lengthAdjust="spacing" textLength="118" x="13" y="735.552">comment : string</text><text fill="#000000" font-family="sans-serif" font-size="14" lengthAdjust="spacing" textLength="248" x="13" y="751.8489">robustness : descriptor_robustness</text><text fill="#000000" font-family="sans-serif" font-size="14" lengthAdjust="spacing" textLength="103" x="13" y="768.1457">id(i) : uriorcurie</text><line style="stroke:#181818;stroke-width:0.5;" x1="8" x2="266" y1="775.4475" y2="775.4475"/></g></a><!--class DescriptorType--><a href="" target="_top" title="Details about a descriptor type" xlink:actuate="onRequest" xlink:href="" xlink:show="new" xlink:title="Details about a descriptor type" xlink:type="simple"><g id="elem_DescriptorType"><rect codeLine="10" fill="#F1F1F1" height="96.8906" id="DescriptorType" rx="2.5" ry="2.5" style="stroke:#181818;stroke-width:0.5;" width="181" x="161.5" y="496.37"/><ellipse cx="195.85" cy="512.37" fill="#ADD1B2" rx="11" ry="11" style="stroke:#181818;stroke-width:1.0;"/><path d="M198.8188,518.0106 Q198.2406,518.3075 197.6,518.4481 Q196.9594,518.6044 196.2563,518.6044 Q193.7563,518.6044 192.4281,516.9638 Q191.1156,515.3075 191.1156,512.1825 Q191.1156,509.0575 192.4281,507.4013 Q193.7563,505.745 196.2563,505.745 Q196.9594,505.745 197.6,505.9013 Q198.2563,506.0575 198.8188,506.3544 L198.8188,509.0731 Q198.1938,508.495 197.6,508.2294 Q197.0063,507.9481 196.3813,507.9481 Q195.0375,507.9481 194.35,509.0263 Q193.6625,510.0888 193.6625,512.1825 Q193.6625,514.2763 194.35,515.3544 Q195.0375,516.4169 196.3813,516.4169 Q197.0063,516.4169 197.6,516.1513 Q198.1938,515.87 198.8188,515.2919 L198.8188,518.0106 Z " fill="#000000"/><text fill="#000000" font-family="sans-serif" font-size="14" lengthAdjust="spacing" textLength="106" x="214.15" y="517.2167">DescriptorType</text><line style="stroke:#181818;stroke-width:0.5;" x1="162.5" x2="341.5" y1="528.37" y2="528.37"/><text fill="#000000" font-family="sans-serif" font-size="14" lengthAdjust="spacing" textLength="84" x="167.5" y="545.3651">label : string</text><text fill="#000000" font-family="sans-serif" font-size="14" lengthAdjust="spacing" textLength="169" x="167.5" y="561.662">max_block_size : integer</text><text fill="#000000" font-family="sans-serif" font-size="14" lengthAdjust="spacing" textLength="103" x="167.5" y="577.9589">id(i) : uriorcurie</text><line style="stroke:#181818;stroke-width:0.5;" x1="162.5" x2="341.5" y1="585.2606" y2="585.2606"/></g></a><!--class DescribableThing--><a href="" target="_top" title="An item that can be described by one or more descriptors. Could be an item(file) or another descriptor" xlink:actuate="onRequest" xlink:href="" xlink:show="new" xlink:title="An item that can be described by one or more descriptors. Could be an item(file) or another descriptor" xlink:type="simple"><g id="elem_DescribableThing"><rect codeLine="15" fill="#F1F1F1" height="64.2969" id="DescribableThing" rx="2.5" ry="2.5" style="stroke:#181818;stroke-width:0.5;" width="153" x="280.5" y="132.29"/><ellipse cx="295.5" cy="148.29" fill="#ADD1B2" rx="11" ry="11" style="stroke:#181818;stroke-width:1.0;"/><path d="M298.4688,153.9306 Q297.8906,154.2275 297.25,154.3681 Q296.6094,154.5244 295.9063,154.5244 Q293.4063,154.5244 292.0781,152.8838 Q290.7656,151.2275 290.7656,148.1025 Q290.7656,144.9775 292.0781,143.3213 Q293.4063,141.665 295.9063,141.665 Q296.6094,141.665 297.25,141.8213 Q297.9063,141.9775 298.4688,142.2744 L298.4688,144.9931 Q297.8438,144.415 297.25,144.1494 Q296.6563,143.8681 296.0313,143.8681 Q294.6875,143.8681 294,144.9463 Q293.3125,146.0088 293.3125,148.1025 Q293.3125,150.1963 294,151.2744 Q294.6875,152.3369 296.0313,152.3369 Q296.6563,152.3369 297.25,152.0713 Q297.8438,151.79 298.4688,151.2119 L298.4688,153.9306 Z " fill="#000000"/><text fill="#000000" font-family="sans-serif" font-size="14" lengthAdjust="spacing" textLength="121" x="309.5" y="153.1367">DescribableThing</text><line style="stroke:#181818;stroke-width:0.5;" x1="281.5" x2="432.5" y1="164.29" y2="164.29"/><text fill="#000000" font-family="sans-serif" font-size="14" lengthAdjust="spacing" textLength="103" x="286.5" y="181.2851">id(i) : uriorcurie</text><line style="stroke:#181818;stroke-width:0.5;" x1="281.5" x2="432.5" y1="188.5869" y2="188.5869"/></g></a><!--class Descriptor--><a href="" target="_top" title="A descriptor for the whole or part of an item or another descriptor" xlink:actuate="onRequest" xlink:href="" xlink:show="new" xlink:title="A descriptor for the whole or part of an item or another descriptor" xlink:type="simple"><g id="elem_Descriptor"><rect codeLine="22" fill="#F1F1F1" height="145.7813" id="Descriptor" rx="2.5" ry="2.5" style="stroke:#181818;stroke-width:0.5;" width="118" x="232" y="273.59"/><ellipse cx="253.3" cy="289.59" fill="#ADD1B2" rx="11" ry="11" style="stroke:#181818;stroke-width:1.0;"/><path d="M256.2688,295.2306 Q255.6906,295.5275 255.05,295.6681 Q254.4094,295.8244 253.7063,295.8244 Q251.2063,295.8244 249.8781,294.1838 Q248.5656,292.5275 248.5656,289.4025 Q248.5656,286.2775 249.8781,284.6213 Q251.2063,282.965 253.7063,282.965 Q254.4094,282.965 255.05,283.1213 Q255.7063,283.2775 256.2688,283.5744 L256.2688,286.2931 Q255.6438,285.715 255.05,285.4494 Q254.4563,285.1681 253.8313,285.1681 Q252.4875,285.1681 251.8,286.2463 Q251.1125,287.3088 251.1125,289.4025 Q251.1125,291.4963 251.8,292.5744 Q252.4875,293.6369 253.8313,293.6369 Q254.4563,293.6369 255.05,293.3713 Q255.6438,293.09 256.2688,292.5119 L256.2688,295.2306 Z " fill="#000000"/><text fill="#000000" font-family="sans-serif" font-size="14" lengthAdjust="spacing" textLength="72" x="268.7" y="294.4367">Descriptor</text><line style="stroke:#181818;stroke-width:0.5;" x1="233" x2="349" y1="305.59" y2="305.59"/><text fill="#000000" font-family="sans-serif" font-size="14" lengthAdjust="spacing" textLength="88" x="238" y="322.5851">value : string</text><text fill="#000000" font-family="sans-serif" font-size="14" lengthAdjust="spacing" textLength="101" x="238" y="338.882">offset : integer</text><text fill="#000000" font-family="sans-serif" font-size="14" lengthAdjust="spacing" textLength="106" x="238" y="355.1789">length : integer</text><text fill="#000000" font-family="sans-serif" font-size="14" lengthAdjust="spacing" textLength="106" x="238" y="371.4757">coverage : float</text><text fill="#000000" font-family="sans-serif" font-size="14" lengthAdjust="spacing" textLength="84" x="238" y="387.7726">label : string</text><text fill="#000000" font-family="sans-serif" font-size="14" lengthAdjust="spacing" textLength="103" x="238" y="404.0695">id(i) : uriorcurie</text><line style="stroke:#181818;stroke-width:0.5;" x1="233" x2="349" y1="411.3713" y2="411.3713"/></g></a><!--class Item--><a href="" target="_top" title="An individual item for example a file" xlink:actuate="onRequest" xlink:href="" xlink:show="new" xlink:title="An individual item for example a file" xlink:type="simple"><g id="elem_Item"><rect codeLine="33" fill="#F1F1F1" height="96.8906" id="Item" rx="2.5" ry="2.5" style="stroke:#181818;stroke-width:0.5;" width="143" x="385.5" y="298.04"/><ellipse cx="437.75" cy="314.04" fill="#ADD1B2" rx="11" ry="11" style="stroke:#181818;stroke-width:1.0;"/><path d="M440.7188,319.6806 Q440.1406,319.9775 439.5,320.1181 Q438.8594,320.2744 438.1563,320.2744 Q435.6563,320.2744 434.3281,318.6338 Q433.0156,316.9775 433.0156,313.8525 Q433.0156,310.7275 434.3281,309.0713 Q435.6563,307.415 438.1563,307.415 Q438.8594,307.415 439.5,307.5713 Q440.1563,307.7275 440.7188,308.0244 L440.7188,310.7431 Q440.0938,310.165 439.5,309.8994 Q438.9063,309.6181 438.2813,309.6181 Q436.9375,309.6181 436.25,310.6963 Q435.5625,311.7588 435.5625,313.8525 Q435.5625,315.9463 436.25,317.0244 Q436.9375,318.0869 438.2813,318.0869 Q438.9063,318.0869 439.5,317.8213 Q440.0938,317.54 440.7188,316.9619 L440.7188,319.6806 Z " fill="#000000"/><text fill="#000000" font-family="sans-serif" font-size="14" lengthAdjust="spacing" textLength="30" x="458.25" y="318.8867">Item</text><line style="stroke:#181818;stroke-width:0.5;" x1="386.5" x2="527.5" y1="330.04" y2="330.04"/><text fill="#000000" font-family="sans-serif" font-size="14" lengthAdjust="spacing" textLength="84" x="391.5" y="347.0351">label : string</text><text fill="#000000" font-family="sans-serif" font-size="14" lengthAdjust="spacing" textLength="131" x="391.5" y="363.332">isPartOf : uriorcurie</text><text fill="#000000" font-family="sans-serif" font-size="14" lengthAdjust="spacing" textLength="103" x="391.5" y="379.6289">id(i) : uriorcurie</text><line style="stroke:#181818;stroke-width:0.5;" x1="386.5" x2="527.5" y1="386.9306" y2="386.9306"/></g></a><!--reverse link Thing to Method--><g id="link_Thing_Method"><path codeLine="18" d="M137.4192,85.2216 C118.0692,108.6216 108,128.61 108,163.44 C108,163.44 108,163.44 108,545.82 C108,587.77 115.77,634.52 123.26,669.87 " fill="none" id="Thing-backto-Method" style="stroke:#181818;stroke-width:1.0;"/><polygon fill="none" points="148.89,71.35,132.7954,81.398,142.0431,89.0452,148.89,71.35" style="stroke:#181818;stroke-width:1.0;"/></g><!--reverse link Thing to DescriptorType--><g id="link_Thing_DescriptorType"><path codeLine="19" d="M180.2786,89.4116 C182.2686,154.6716 188.93,291.89 214,419.37 C219.06,445.08 227.33,473.05 234.87,495.94 " fill="none" id="Thing-backto-DescriptorType" style="stroke:#181818;stroke-width:1.0;"/><polygon fill="none" points="179.73,71.42,174.2814,89.5945,186.2758,89.2288,179.73,71.42" style="stroke:#181818;stroke-width:1.0;"/></g><!--reverse link Thing to DescribableThing--><g id="link_Thing_DescribableThing"><path codeLine="20" d="M239.1753,81.8318 C265.8453,100.3118 284.68,113.35 311.4,131.85 " fill="none" id="Thing-backto-DescribableThing" style="stroke:#181818;stroke-width:1.0;"/><polygon fill="none" points="224.38,71.58,235.758,86.7636,242.5925,76.9001,224.38,71.58" style="stroke:#181818;stroke-width:1.0;"/></g><!--link DescriptorType to Method--><g id="link_DescriptorType_Method"><path codeLine="21" d="M221.48,593.59 C206.51,617.03 191.6093,640.3531 175.9893,664.8131 " fill="none" id="DescriptorType-to-Method" style="stroke:#181818;stroke-width:1.0;"/><polygon fill="#181818" points="172.76,669.87,180.9751,664.4376,175.4511,665.656,174.2327,660.1319,172.76,669.87" style="stroke:#181818;stroke-width:1.0;"/><text fill="#000000" font-family="sans-serif" font-size="13" lengthAdjust="spacing" textLength="78" x="203" y="636.3269">usesMethod</text><text fill="#000000" font-family="sans-serif" font-size="13" lengthAdjust="spacing" textLength="8" x="168.6307" y="659.086">1</text></g><!--link Descriptor to DescriptorType--><g id="link_Descriptor_DescriptorType"><path codeLine="30" d="M276.64,419.75 C271.58,445.23 267.2003,467.3252 262.6403,490.2552 " fill="none" id="Descriptor-to-DescriptorType" style="stroke:#181818;stroke-width:1.0;"/><polygon fill="#181818" points="261.47,496.14,267.1486,488.093,262.4452,491.236,259.3022,486.5327,261.47,496.14" style="stroke:#181818;stroke-width:1.0;"/><text fill="#000000" font-family="sans-serif" font-size="13" lengthAdjust="spacing" textLength="53" x="272" y="462.4369">hasType</text><text fill="#000000" font-family="sans-serif" font-size="13" lengthAdjust="spacing" textLength="8" x="254.2392" y="485.3166">1</text></g><!--link DescribableThing to Descriptor--><g id="link_DescribableThing_Descriptor"><path codeLine="31" d="M290.76,196.87 C280,205 270.33,214.86 264,226.59 C256.31,240.84 254.5805,251.2825 257.4105,267.2125 " fill="none" id="DescribableThing-to-Descriptor" style="stroke:#181818;stroke-width:1.0;"/><polygon fill="#181818" points="258.46,273.12,260.8241,263.5591,257.5854,268.1971,252.9474,264.9584,258.46,273.12" style="stroke:#181818;stroke-width:1.0;"/><text fill="#000000" font-family="sans-serif" font-size="13" lengthAdjust="spacing" textLength="89" x="265" y="239.6569">hasDescriptor</text><text fill="#000000" font-family="sans-serif" font-size="13" lengthAdjust="spacing" textLength="23" x="231.2624" y="262.4862">0..*</text></g><!--reverse link DescribableThing to Descriptor--><g id="link_DescribableThing_Descriptor"><path codeLine="32" d="M363.8874,214.7772 C365.1974,229.2972 363.53,228.65 359,243.59 C355.95,253.67 351.53,263.65 346.4,273.21 " fill="none" id="DescribableThing-backto-Descriptor" style="stroke:#181818;stroke-width:1.0;"/><polygon fill="none" points="362.27,196.85,357.9117,215.3163,369.8631,214.2381,362.27,196.85" style="stroke:#181818;stroke-width:1.0;"/></g><!--reverse link DescribableThing to Item--><g id="link_DescribableThing_Item"><path codeLine="38" d="M383.1572,212.5372 C398.5972,240.3472 412.65,265.64 430.38,297.56 " fill="none" id="DescribableThing-backto-Item" style="stroke:#181818;stroke-width:1.0;"/><polygon fill="none" points="374.42,196.8,377.9115,215.4496,388.403,209.6248,374.42,196.8" style="stroke:#181818;stroke-width:1.0;"/></g><!--SRC=[dPJ1Rjim38RlUGh2fxP0WksQmu2YlVImTeVUYYwWRDeM9ek1H6VjWhpxQ2Tn7RikqlfWmA98aV_towd3625vBAql4dXwsjwpfztpCsndeCysj-Io7TWCbb07oo7LDm7CThDqd_gJfEIipRs6gls0Eb86mb2Gfu12W91HJ8DT2uTnTOU6d1uG9MWRMhmVJBcgoCjKEB2fetZILfQzGrQzTHYCSc4l9wUvxIeylgwfdUgM1AsBW8PhEPa4HFTySfmANrR6SVfd5Uq_qbtM2nKKlj2bGUFeZTor1ojKWPGeaA87GuTUZT8mhw1aGPkkE51lYBY06wvTrcp7VOcBt3gwRFQYPocrkO_eJRHwzDJl-RmpoUdYGEltWhqHPoCsy_aFIBudRnPSGgBEYyV3HaWF9kq1p1k89S7VabqhpXg30ET79SxLO8EkfYdadEUHP1Ar8rz8EHbEUQDtg6YgvuuLBPnljYaqVKaw5OVogfebnWEQiUFQl6-BnLLoAl4-hRVoNlA0VyVgJZNlpEmpkx5PZMwFec55BrYjNVC_QIpwoQjduo-b-v0F1JbViT48RR__0G00]--></g></svg>